<?xml version="1.0" encoding="UTF-8" standalone="no"?>
<svg width="61px" height="41px" viewBox="0 0 61 41" version="1.1" xmlns="http://www.w3.org/2000/svg" xmlns:xlink="http://www.w3.org/1999/xlink">
    <!-- Generator: Sketch 39.1 (31720) - http://www.bohemiancoding.com/sketch -->
    <title>KIND_Logo</title>
    <desc>Created with Sketch.</desc>
    <defs></defs>
    <g id="home-page" stroke="none" stroke-width="1" fill="none" fill-rule="evenodd">
        <g id="kind-home-3d@2x" transform="translate(-977.000000, -133.000000)">
            <g id="navigation">
                <g id="KIND_Logo" transform="translate(977.000000, 133.000000)">
                    <path d="M0.0410591458,0 L0.0410591458,40.8333333 L3.6912172,40.8333333 L3.6912172,34.9349583 L5.44033681,33.1199167 L10.9145474,40.8333333 L15.6291638,40.8333333 L8.02706299,30.4739167 L15.2493667,23.2157917 L18.290823,23.2157917 L18.290823,40.8333333 L21.9389281,40.8333333 L21.9389281,23.21375 L26.6535445,23.21375 L26.6535445,40.8333333 L30.0758243,40.8333333 L30.0758243,28.3567083 L37.2991545,40.8333333 L41.025272,40.8333333 L41.025272,23.21375 L45.6629025,23.21375 L45.6629025,40.8333333 L53.2670563,40.8333333 C55.9276889,40.8333333 57.9046868,39.7747292 59.1970234,37.5819792 C60.1105894,35.9935625 60.6423053,33.9518958 60.6423053,31.6080625 C60.6423053,30.6995208 60.5663459,29.7174792 60.3374412,28.7344167 C60.1116159,27.6758125 59.7318188,26.7682917 59.046131,25.8607708 C58.2865368,24.8021667 57.2970114,24.0457292 56.0046748,23.6680208 C55.3189871,23.4413958 54.4834335,23.2903125 53.4179486,23.2903125 L60.8701836,23.2903125 L60.8701836,0 L0.0410591458,0 L0.0410591458,0 Z M56.0046748,27.7513542 C56.5363907,28.7344167 56.8402284,30.0951875 56.8402284,31.9102292 C56.8402284,33.1964792 56.6123502,34.3296042 56.3085125,35.2381458 C55.6238512,36.9756042 54.407474,37.8075833 52.6583544,37.8075833 L49.2371011,37.8075833 L49.2371011,26.313 L52.6583544,26.313 C54.3315146,26.313 55.4709059,26.7672708 56.0046748,27.7503333 L56.0046748,27.7513542 Z M3.69019072,30.4739167 L3.69019072,23.2157917 L10.5337238,23.2157917 L3.69019072,30.4739167 L3.69019072,30.4739167 Z M37.5260063,35.5403125 L30.5295278,23.2903125 L37.5249798,23.2903125 L37.5249798,35.5403125 L37.5260063,35.5403125 Z" id="Shape" fill="#FFFFFF"></path>
                    <polygon id="Shape" fill="#EDAA00" points="0.0410591458 0 15.2493667 0 15.2493667 22.6849583 0.0410591458 22.6849583"></polygon>
                    <polygon id="Shape" fill="#61B4E4" points="45.6629025 0 60.8701836 0 60.8701836 22.6849583 45.6629025 22.6849583"></polygon>
                    <polygon id="Shape" fill="#BABF10" points="30.4556214 0 45.6629025 0 45.6629025 22.6849583 30.4556214 22.6849583"></polygon>
                    <polygon id="Shape" fill="#D9272E" points="15.2493667 0 30.4556214 0 30.4556214 22.6849583 15.2493667 22.6849583"></polygon>
                    <path d="M58.9352713,24.5561458 C58.9352713,25.0890208 59.3663924,25.5198125 59.9022142,25.5198125 C60.4390625,25.5198125 60.8701836,25.0890208 60.8701836,24.555125 C60.8701836,24.0314375 60.4390625,23.60575 59.9022142,23.60575 C59.3663924,23.60575 58.9352713,24.0314375 58.9352713,24.555125 M60.6310141,24.555125 C60.6310141,24.9736667 60.3066468,25.3085 59.9001613,25.3085 C59.4998346,25.3085 59.1693085,24.9736667 59.1693085,24.555125 C59.1693085,24.1488333 59.4998346,23.8099167 59.9001613,23.8099167 C60.3066468,23.8099167 60.6310141,24.1488333 60.6310141,24.555125" id="Shape" fill="#FFFFFF"></path>
                    <path d="M59.5891382,24.9971458 L59.74311,24.9971458 L59.74311,24.6265833 L59.8765522,24.6265833 L60.1023775,24.9971458 L60.2830378,24.9971458 L60.0366829,24.6235208 C60.1598604,24.6000417 60.2645612,24.5377708 60.2645612,24.3785208 C60.2645612,24.2049792 60.1516485,24.1273958 59.9309556,24.1273958 L59.5881117,24.1273958 L59.5881117,24.9981667 L59.5901647,24.9981667 L59.5891382,24.9971458 Z M59.74311,24.2539792 L59.9176114,24.2539792 C60.0038356,24.2539792 60.1105894,24.26725 60.1105894,24.3734167 C60.1105894,24.4959167 60.011021,24.4989792 59.9011877,24.4989792 L59.7441365,24.4989792 L59.7441365,24.2539792 L59.74311,24.2539792 Z" id="Shape" fill="#FFFFFF"></path>
                </g>
            </g>
        </g>
    </g>
</svg>